# xmcd
#
# Track frame offsets:
#	150
#	1690
#	20344
#	30641
#	58964
#	80460
#	113067
#	130201
#	151053
#	173998
#	193257
#	214974
#
# Disc length: 3064 seconds
#
# Revision: 1
# Processed by: cddbd v1.5.2PL0 Copyright (c) Steve Scherf et al.
# Submitted via: audiograbber 1.81.02
#
DISCID=990bf60c
DTITLE=Lemmie Battles - You're Looking At A Miracle
DYEAR=2006
DGENRE=Gospel
TTITLE0=Introduction
TTITLE1=Lift Him Higher
TTITLE2=It's Time To Give Him Praise
TTITLE3=Call Him Anytime
TTITLE4=The Saints Will Be Going Home
TTITLE5=Worthy Is The Lamb
TTITLE6=Jesus Is All We Need
TTITLE7=Call On Jesus
TTITLE8=You Can Depend On Jesus
TTITLE9=You're Looking At A Miracle
TTITLE10=Bless The Lord At All Times
TTITLE11=Lord, We Worship You
EXTD=www.gerth.de, Art.-Nr. 3542393
EXTT0=
EXTT1=
EXTT2=
EXTT3=
EXTT4=
EXTT5=
EXTT6=
EXTT7=
EXTT8=
EXTT9=
EXTT10=
EXTT11=
PLAYORDER=
